<svg id="Layer_1" data-name="Layer 1" xmlns="http://www.w3.org/2000/svg" viewBox="0 0 50 40"><defs><style>.cls-1{fill:none;stroke:#000;stroke-miterlimit:10;}</style></defs><title>brandonz.me-160203-r1</title><path d="M12.5,4A8.51,8.51,0,0,1,21,12.5v15a8.5,8.5,0,0,1-17,0v-15A8.51,8.51,0,0,1,12.5,4m0-1A9.5,9.5,0,0,0,3,12.5v15a9.5,9.5,0,0,0,19,0v-15A9.5,9.5,0,0,0,12.5,3h0Z"/><circle cx="12.5" cy="13.5" r="1.5"/><polyline class="cls-1" points="30 14 36 20 30 26"/><polyline class="cls-1" points="40 14 46 20 40 26"/></svg>